<mxfile host="app.diagrams.net" modified="2022-02-13T22:13:52.568Z" agent="5.0 (Windows NT 10.0; Win64; x64) AppleWebKit/537.36 (KHTML, like Gecko) Chrome/98.0.4758.82 Safari/537.36" etag="1JdGr3w33Wyn6ocDPIAD" version="16.5.6" type="github">
  <diagram id="kgpKYQtTHZ0yAKxKKP6v" name="Page-1">
    <mxGraphModel dx="460" dy="752" grid="1" gridSize="10" guides="1" tooltips="1" connect="1" arrows="1" fold="1" page="1" pageScale="1" pageWidth="850" pageHeight="1100" math="0" shadow="0">
      <root>
        <mxCell id="0" />
        <mxCell id="1" parent="0" />
        <mxCell id="3nuBFxr9cyL0pnOWT2aG-1" value=":Object" style="shape=umlLifeline;perimeter=lifelinePerimeter;container=1;collapsible=0;recursiveResize=0;rounded=0;shadow=0;strokeWidth=1;" parent="1" vertex="1">
          <mxGeometry x="120" y="80" width="100" height="300" as="geometry" />
        </mxCell>
        <mxCell id="3nuBFxr9cyL0pnOWT2aG-2" value="" style="points=[];perimeter=orthogonalPerimeter;rounded=0;shadow=0;strokeWidth=1;" parent="3nuBFxr9cyL0pnOWT2aG-1" vertex="1">
          <mxGeometry x="45" y="70" width="10" height="190" as="geometry" />
        </mxCell>
        <mxCell id="3nuBFxr9cyL0pnOWT2aG-5" value=":Object" style="shape=umlLifeline;perimeter=lifelinePerimeter;container=1;collapsible=0;recursiveResize=0;rounded=0;shadow=0;strokeWidth=1;" parent="1" vertex="1">
          <mxGeometry x="300" y="80" width="100" height="300" as="geometry" />
        </mxCell>
        <mxCell id="3nuBFxr9cyL0pnOWT2aG-6" value="" style="points=[];perimeter=orthogonalPerimeter;rounded=0;shadow=0;strokeWidth=1;" parent="3nuBFxr9cyL0pnOWT2aG-5" vertex="1">
          <mxGeometry x="45" y="80" width="10" height="160" as="geometry" />
        </mxCell>
        <mxCell id="FQ0F1-FjqKV5PCn2Tg_A-1" value="Steve " style="shape=umlLifeline;perimeter=lifelinePerimeter;container=1;collapsible=0;recursiveResize=0;rounded=0;shadow=0;strokeWidth=1;" vertex="1" parent="1">
          <mxGeometry x="120" y="80" width="100" height="300" as="geometry" />
        </mxCell>
        <mxCell id="FQ0F1-FjqKV5PCn2Tg_A-2" value="" style="points=[];perimeter=orthogonalPerimeter;rounded=0;shadow=0;strokeWidth=1;" vertex="1" parent="FQ0F1-FjqKV5PCn2Tg_A-1">
          <mxGeometry x="45" y="70" width="10" height="190" as="geometry" />
        </mxCell>
        <mxCell id="FQ0F1-FjqKV5PCn2Tg_A-5" value="Mobile Application" style="shape=umlLifeline;perimeter=lifelinePerimeter;container=1;collapsible=0;recursiveResize=0;rounded=0;shadow=0;strokeWidth=1;" vertex="1" parent="1">
          <mxGeometry x="300" y="80" width="100" height="300" as="geometry" />
        </mxCell>
        <mxCell id="FQ0F1-FjqKV5PCn2Tg_A-6" value="" style="points=[];perimeter=orthogonalPerimeter;rounded=0;shadow=0;strokeWidth=1;" vertex="1" parent="FQ0F1-FjqKV5PCn2Tg_A-5">
          <mxGeometry x="45" y="80" width="10" height="160" as="geometry" />
        </mxCell>
        <mxCell id="FQ0F1-FjqKV5PCn2Tg_A-15" value="Categorization button" style="edgeStyle=orthogonalEdgeStyle;html=1;align=left;spacingLeft=2;endArrow=block;rounded=0;entryX=1;entryY=0;" edge="1" parent="FQ0F1-FjqKV5PCn2Tg_A-5">
          <mxGeometry relative="1" as="geometry">
            <mxPoint x="50" y="90" as="sourcePoint" />
            <Array as="points">
              <mxPoint x="80" y="90" />
            </Array>
            <mxPoint x="55" y="110" as="targetPoint" />
          </mxGeometry>
        </mxCell>
        <mxCell id="FQ0F1-FjqKV5PCn2Tg_A-18" value="Enter items in a category" style="edgeStyle=orthogonalEdgeStyle;html=1;align=left;spacingLeft=2;endArrow=block;rounded=0;entryX=1;entryY=0;" edge="1" parent="FQ0F1-FjqKV5PCn2Tg_A-5">
          <mxGeometry relative="1" as="geometry">
            <mxPoint x="60" y="135" as="sourcePoint" />
            <Array as="points">
              <mxPoint x="90" y="135" />
            </Array>
            <mxPoint x="55" y="155" as="targetPoint" />
          </mxGeometry>
        </mxCell>
        <mxCell id="FQ0F1-FjqKV5PCn2Tg_A-8" value="Open app and login" style="verticalAlign=bottom;endArrow=block;entryX=0;entryY=0;shadow=0;strokeWidth=1;" edge="1" parent="1" source="FQ0F1-FjqKV5PCn2Tg_A-2" target="FQ0F1-FjqKV5PCn2Tg_A-6">
          <mxGeometry relative="1" as="geometry">
            <mxPoint x="275" y="160" as="sourcePoint" />
          </mxGeometry>
        </mxCell>
        <mxCell id="FQ0F1-FjqKV5PCn2Tg_A-11" value="Firebase" style="shape=umlLifeline;perimeter=lifelinePerimeter;container=1;collapsible=0;recursiveResize=0;rounded=0;shadow=0;strokeWidth=1;" vertex="1" parent="1">
          <mxGeometry x="490" y="80" width="100" height="300" as="geometry" />
        </mxCell>
        <mxCell id="FQ0F1-FjqKV5PCn2Tg_A-12" value="" style="points=[];perimeter=orthogonalPerimeter;rounded=0;shadow=0;strokeWidth=1;" vertex="1" parent="FQ0F1-FjqKV5PCn2Tg_A-11">
          <mxGeometry x="45" y="80" width="10" height="160" as="geometry" />
        </mxCell>
      </root>
    </mxGraphModel>
  </diagram>
</mxfile>
